<?xml version="1.0" standalone="no"?>
<!DOCTYPE svg PUBLIC "-//W3C//DTD SVG 20010904//EN"
 "http://www.w3.org/TR/2001/REC-SVG-20010904/DTD/svg10.dtd">
<svg version="1.0" xmlns="http://www.w3.org/2000/svg"
 width="256.000000pt" height="256.000000pt" viewBox="0 0 256.000000 256.000000"
 preserveAspectRatio="xMidYMid meet">

<g transform="translate(0.000000,256.000000) scale(0.100000,-0.100000)"
fill="#000000" stroke="none">
<path d="M1075 2544 c-777 -136 -1249 -907 -1013 -1654 139 -439 503 -764 968
-866 119 -26 381 -26 500 0 394 86 710 326 887 672 323 631 75 1400 -553 1721
-241 124 -537 171 -789 127z m418 -29 c522 -91 931 -500 1022 -1022 19 -110
19 -316 0 -426 -91 -522 -500 -931 -1022 -1022 -110 -19 -316 -19 -426 0 -522
91 -931 500 -1022 1022 -19 110 -19 316 0 426 45 257 163 484 350 672 182 183
412 304 664 349 104 19 328 20 434 1z"/>
<path d="M827 2133 c-4 -3 -7 -341 -7 -750 l0 -744 88 3 87 3 3 42 c3 43 3 43
43 43 l40 0 -3 43 c-3 42 -3 42 -43 42 -40 0 -40 0 -43 -42 -3 -43 -3 -43 -43
-43 l-39 0 -2 445 c-2 245 -3 520 -3 613 l0 167 42 3 42 3 3 -43 c3 -43 3 -43
46 -46 42 -3 42 -3 42 -43 l0 -39 45 0 45 0 0 -45 0 -45 45 0 45 0 0 -45 0
-45 45 0 45 0 0 -45 0 -45 39 0 c40 0 40 0 43 -42 3 -43 3 -43 46 -46 42 -3
42 -3 42 -43 l0 -39 45 0 45 0 0 -45 0 -45 45 0 45 0 0 -45 0 -45 45 0 45 0 0
-45 0 -45 -177 -2 -178 -3 -3 -79 c-2 -44 1 -83 6 -88 5 -5 26 -6 46 -3 34 7
36 9 36 46 l0 39 153 0 153 0 22 84 c12 46 22 87 22 90 0 3 -18 6 -39 6 -40 0
-40 0 -43 43 -3 42 -3 42 -45 45 -43 3 -43 4 -43 42 0 41 -11 50 -61 50 -27 0
-29 2 -29 40 l0 40 -45 0 -45 0 0 45 0 45 -39 0 c-41 0 -51 13 -51 68 0 19 -5
22 -39 22 -40 0 -40 0 -43 43 -3 42 -3 42 -45 45 -42 3 -42 3 -45 45 -3 42 -3
42 -45 45 -43 3 -43 3 -43 43 l0 39 -45 0 -45 0 0 45 0 45 -45 0 -45 0 0 45 0
45 -39 0 c-38 0 -39 1 -45 45 -7 43 -9 45 -40 45 -18 0 -36 -3 -39 -7z"/>
<path d="M1168 948 c-3 -43 -3 -43 -45 -46 -43 -3 -43 -4 -43 -41 0 -32 4 -40
23 -45 12 -3 33 -3 45 1 18 4 22 12 22 44 l0 39 45 0 45 0 0 -85 0 -85 45 0
45 0 0 -90 0 -90 45 0 45 0 0 -45 0 -45 85 0 85 0 0 45 0 45 45 0 45 0 0 90 0
90 -45 0 -44 0 -3 88 -3 87 -40 0 -40 0 -3 -87 -3 -88 46 0 45 0 0 -90 0 -91
-87 3 -88 3 -3 88 -3 87 -39 0 -40 0 0 85 0 85 -45 0 -45 0 0 45 0 45 -44 0
-45 0 -3 -42z"/>
</g>
</svg>
